<?xml version="1.0" encoding="iso-8859-1"?>
<!-- Generator: Adobe Illustrator 19.0.0, SVG Export Plug-In . SVG Version: 6.00 Build 0)  -->
<svg version="1.1" id="Capa_1" xmlns="http://www.w3.org/2000/svg" xmlns:xlink="http://www.w3.org/1999/xlink" x="0px" y="0px"
	 viewBox="0 0 512 512" style="enable-background:new 0 0 512 512;" xml:space="preserve">
<g>
	<g>
		<path d="M256,0C114.844,0,0,114.844,0,256s114.844,256,256,256s256-114.844,256-256S397.156,0,256,0z M256,469.333
			c-117.635,0-213.333-95.698-213.333-213.333c0-51.151,18.125-98.126,48.249-134.918l47.471,47.471
			C132.043,174.405,128,182.71,128,192v160c0,41.167,33.5,74.667,74.667,74.667h56.417c28.292,0,55.021-12.385,73.792-34.646
			l12.134-16.845l45.909,45.909C354.126,451.208,307.151,469.333,256,469.333z M421.085,390.918l-50.815-50.815l33.043-45.874
			c1.313-1.813,2.021-3.99,2.021-6.229v-4.208c0-21.208-17.25-38.458-38.458-38.458c-12.896,0-24.854,6.406-32,17.125L320,284.771
			V149.333c0-17.646-14.354-32-32-32c-3.729,0-7.333,0.646-10.667,1.823v-1.823c0-17.646-14.354-32-32-32
			c-14.729,0-27.167,10.01-30.875,23.583c-3.646-1.448-7.625-2.25-11.792-2.25c-17.646,0-32,14.354-32,32v1.833l-49.585-49.585
			C157.874,60.792,204.849,42.667,256,42.667c117.635,0,213.333,95.698,213.333,213.333
			C469.333,307.151,451.208,354.126,421.085,390.918z"/>
	</g>
</g>
<g>
</g>
<g>
</g>
<g>
</g>
<g>
</g>
<g>
</g>
<g>
</g>
<g>
</g>
<g>
</g>
<g>
</g>
<g>
</g>
<g>
</g>
<g>
</g>
<g>
</g>
<g>
</g>
<g>
</g>
</svg>
